#!OML:ASF H:\ManfredObstacles\Project 1\Capture day 2\Session 1\male.ASF
:FULLY-SPECIFIED
:DEGREES
271
root 2.61681 14.732 1.59076 -153.549 -10.1104 179.113
lowerback 37.2193 4.66454 0.570385
upperback 17.4404 0.555231 1.6747
thorax 0.720154 -1.75408 1.25905
lowerneck -31.853 -2.09203 0.853336
upperneck 23.581 -4.57527 3.56749
head 13.2663 -1.3874 0.352315
rclavicle -3.57812e-015 2.29596e-014
rhumerus -19.3068 11.1099 -94.9897
rradius 92.68
rwrist 39.9147
rhand -14.4299 -12.5622
rfingers 7.12502
rthumb 11.7146 -42.2147
lclavicle -3.57812e-015 2.29596e-014
lhumerus -7.57488 -42.7904 85.8377
lradius 76.3781
lwrist -28.0324
lhand -16.5461 17.4018
lfingers 7.12502
lthumb 9.67333 47.1597
rfemur -71.2366 2.30633 19.5138
rtibia 63.9785
rfoot -14.9958 -28.6742
rtoes -21.9975
lfemur -64.4944 -10.8176 -15.612
ltibia 58.0556
lfoot -1.41273 21.7858
ltoes -0.551916
272
root 2.62054 14.75 1.4834 -153.43 -9.82114 179.16
lowerback 37.1742 4.66379 0.561464
upperback 17.4386 0.542153 1.72017
thorax 0.73171 -1.76714 1.31496
lowerneck -31.7101 -2.08414 0.630941
upperneck 23.5575 -4.51319 3.74388
head 13.2406 -1.35912 0.471056
rclavicle -7.95139e-015 8.15017e-015
rhumerus -19.2854 11.184 -95.0446
rradius 92.3697
rwrist 40.1089
rhand -14.4347 -12.5931
rfingers 7.12502
rthumb 11.7099 -42.2458
lclavicle -7.95139e-015 8.15017e-015
lhumerus -7.59228 -42.5474 85.8835
lradius 76.0684
lwrist -27.9792
lhand -16.4717 17.4684
lfingers 7.12502
lthumb 9.74512 47.223
rfemur -71.0655 2.67057 18.9949
rtibia 61.5464
rfoot -14.8605 -28.8066
rtoes -22.1858
lfemur -64.0984 -10.6655 -15.5915
ltibia 58.106
lfoot -1.73889 22.2455
ltoes -0.442213
273
root 2.62585 14.7628 1.3752 -153.314 -9.53384 179.214
lowerback 37.0599 4.64514 0.531122
upperback 17.4471 0.500548 1.75875
thorax 0.776465 -1.79492 1.38265
lowerneck -31.5091 -2.05476 0.395926
upperneck 23.5124 -4.41297 3.91785
head 13.1942 -1.31753 0.598563
rclavicle 1.70955e-014 2.57923e-014
rhumerus -19.2166 11.313 -95.1082
rradius 91.9585
rwrist 40.2578
rhand -14.4039 -12.616
rfingers 7.12502
rthumb 11.7397 -42.2671
lclavicle 1.70955e-014 2.57923e-014
lhumerus -7.6432 -42.2277 85.9507
lradius 75.7699
lwrist -27.9957
lhand -16.4795 17.5309
lfingers 7.12502
lthumb 9.73757 47.2858
rfemur -70.8447 3.05062 18.507
rtibia 59.2252
rfoot -14.4507 -28.6652
rtoes -22.5933
lfemur -63.7412 -10.4935 -15.5686
ltibia 58.2329
lfoot -2.12081 22.703
ltoes -0.290694
274
root 2.63275 14.7695 1.26597 -153.208 -9.25471 179.275
lowerback 36.9245 4.68288 0.477037
upperback 17.4522 0.529478 1.84413
thorax 0.821234 -1.79091 1.48996
lowerneck -31.3728 -2.0552 0.250593
upperneck 23.5046 -4.36555 3.9839
head 13.17 -1.30387 0.658131
rclavicle -1.90833e-014 2.00773e-014
rhumerus -19.1027 11.3312 -95.1014
rradius 91.4618
rwrist 40.3546
rhand -14.3758 -12.6284
rfingers 7.12502
rthumb 11.7667 -42.2779
lclavicle -1.90833e-014 2.00773e-014
lhumerus -7.68458 -42.0169 86.0861
lradius 75.4819
lwrist -28.0519
lhand -16.4817 17.6036
lfingers 7.12502
lthumb 9.73548 47.3585
rfemur -70.5792 3.43739 18.0606
rtibia 57.0731
rfoot -13.6157 -28.3158
rtoes -23.3122
lfemur -63.4232 -10.3092 -15.5448
ltibia 58.4495
lfoot -2.52814 23.1575
ltoes -0.146912
275
root 2.64112 14.7702 1.15575 -153.138 -9.00048 179.334
lowerback 36.7897 4.72498 0.410787
upperback 17.4614 0.558011 1.95666
thorax 0.869304 -1.79093 1.63214
lowerneck -31.2316 -2.04962 0.124705
upperneck 23.5013 -4.30137 3.99463
head 13.1438 -1.28908 0.696119
rclavicle -9.93923e-015 -1.69961e-014
rhumerus -18.9391 11.3662 -95.0506
rradius 90.8788
rwrist 40.4177
rhand -14.3551 -12.6226
rfingers 7.12502
rthumb 11.7867 -42.2709
lclavicle -9.93923e-015 -1.69961e-014
lhumerus -7.72896 -41.7875 86.2629
lradius 75.2082
lwrist -28.1402
lhand -16.4971 17.6706
lfingers 7.12502
lthumb 9.72055 47.4263
rfemur -70.2499 3.80224 17.6818
rtibia 55.1552
rfoot -12.2422 -27.7804
rtoes -24.4658
lfemur -63.1161 -10.1253 -15.5294
ltibia 58.7572
lfoot -2.95929 23.6082
ltoes -0.0137027
276
root 2.65038 14.7647 1.0448 -153.098 -8.78411 179.387
lowerback 36.6477 4.75287 0.343607
upperback 17.4761 0.566312 2.08951
thorax 0.925968 -1.80345 1.80209
lowerneck -31.1333 -2.03557 0.0285139
upperneck 23.5236 -4.21636 3.92871
head 13.1321 -1.27221 0.703216
rclavicle -1.98785e-014 1.21756e-014
rhumerus -18.7175 11.4449 -94.9671
rradius 90.2131
rwrist 40.4619
rhand -14.3621 -12.6036
rfingers 7.12502
rthumb 11.7799 -42.2523
lclavicle -1.98785e-014 1.21756e-014
lhumerus -7.77006 -41.523 86.4698
lradius 74.9549
lwrist -28.2127
lhand -16.5149 17.756
lfingers 7.12502
lthumb 9.70341 47.5125
rfemur -69.8805 4.09176 17.4289
rtibia 53.5609
rfoot -10.2597 -27.1566
rtoes -26.2226
lfemur -62.8281 -9.95925 -15.5247
ltibia 59.1544
lfoot -3.34257 24.0529
ltoes 0.0230849
277
root 2.6601 14.7549 0.933144 -153.083 -8.59468 179.436
lowerback 36.4793 4.7521 0.280776
upperback 17.5014 0.536217 2.2243
thorax 1.00434 -1.83618 1.98292
lowerneck -31.0622 -2.01042 -0.106338
upperneck 23.5758 -4.10629 3.88088
head 13.1384 -1.24468 0.728676
rclavicle -1.39149e-014 -1.58531e-014
rhumerus -18.4396 11.595 -94.8703
rradius 89.4836
rwrist 40.546
rhand -14.4069 -12.5752
rfingers 7.12502
rthumb 11.7367 -42.2264
lclavicle -1.39149e-014 -1.58531e-014
lhumerus -7.81023 -41.1836 86.6918
lradius 74.7218
lwrist -28.2594
lhand -16.516 17.8495
lfingers 7.12502
lthumb 9.70233 47.606
rfemur -69.5001 4.27829 17.3579
rtibia 52.3795
rfoot -7.83935 -26.4496
rtoes -27.9679
lfemur -62.5553 -9.80346 -15.5339
ltibia 59.6278
lfoot -3.65167 24.5012
ltoes -0.0280984
278
root 2.67019 14.7411 0.822189 -153.062 -8.43652 179.474
lowerback 36.2134 4.78711 0.164217
upperback 17.5378 0.542051 2.43107
thorax 1.12222 -1.85793 2.25533
lowerneck -30.928 -2.00908 -0.275184
upperneck 23.5978 -4.00536 3.8146
head 13.1208 -1.22841 0.750746
rclavicle -1.03368e-014 -6.80837e-015
rhumerus -18.125 11.7311 -94.6639
rradius 88.7316
rwrist 40.6627
rhand -14.5016 -12.5491
rfingers 7.12502
rthumb 11.6454 -42.2055
lclavicle -1.03368e-014 -6.80837e-015
lhumerus -7.83964 -40.8785 87.0147
lradius 74.5103
lwrist -28.2363
lhand -16.4805 17.9655
lfingers 7.12502
lthumb 9.73659 47.7205
rfemur -69.1834 4.33066 17.4904
rtibia 51.6848
rfoot -5.49531 -25.574
rtoes -29.1028
lfemur -62.3389 -9.66854 -15.5522
ltibia 60.1696
lfoot -3.86945 24.9463
ltoes -0.167768
279
root 2.68122 14.7252 0.711985 -153.066 -8.28245 179.512
lowerback 35.8308 4.8861 -0.0839446
upperback 17.6101 0.581868 2.75544
thorax 1.30955 -1.88353 2.70813
lowerneck -30.6584 -2.02695 -0.554247
upperneck 23.5349 -3.8649 3.72039
head 13.0431 -1.21236 0.787873
rclavicle 6.75868e-015 9.44227e-015
rhumerus -17.7765 11.9513 -94.2915
rradius 88.0244
rwrist 40.8158
rhand -14.607 -12.555
rfingers 7.12502
rthumb 11.5438 -42.2171
lclavicle 6.75868e-015 9.44227e-015
lhumerus -7.86041 -40.4985 87.5116
lradius 74.2923
lwrist -28.2008
lhand -16.4323 18.08
lfingers 7.12502
lthumb 9.7831 47.8328
rfemur -68.92 4.28642 17.812
rtibia 51.4915
rfoot -3.78678 -24.5424
rtoes -29.0271
lfemur -62.1342 -9.53219 -15.5853
ltibia 60.7703
lfoot -3.98658 25.3898
ltoes -0.372263
280
root 2.69358 14.708 0.602919 -153.114 -8.10932 179.554
lowerback 35.3861 5.17649 -0.524604
upperback 17.7068 0.803585 3.2945
thorax 1.52024 -1.85102 3.4344
lowerneck -30.303 -2.13379 -0.854341
upperneck 23.3938 -3.78712 3.47243
head 12.9151 -1.24872 0.756277
rclavicle 8.34896e-015 -6.95746e-016
rhumerus -17.4196 12.0448 -93.6181
rradius 87.4348
rwrist 40.9925
rhand -14.7089 -12.6104
rfingers 7.12502
rthumb 11.4455 -42.278
lclavicle 8.34896e-015 -6.95746e-016
lhumerus -7.83929 -40.2616 88.292
lradius 74.0563
lwrist -28.1906
lhand -16.3544 18.1968
lfingers 7.12502
lthumb 9.85828 47.946
rfemur -68.7039 4.20207 18.2554
rtibia 51.7433
rfoot -3.02756 -23.5086
rtoes -27.5466
lfemur -61.9169 -9.38403 -15.6345
ltibia 61.4298
lfoot -4.03039 25.832
ltoes -0.558862
281
root 2.70651 14.6892 0.49611 -153.19 -7.91518 179.598
lowerback 34.9301 5.52233 -1.04324
upperback 17.8149 1.06894 3.89321
thorax 1.7322 -1.81064 4.25575
lowerneck -29.9036 -2.24339 -1.13495
upperneck 23.1871 -3.69578 3.1351
head 12.75 -1.29059 0.690161
rclavicle -1.59028e-015 -2.48481e-015
rhumerus -17.0583 12.15 -92.8524
rradius 87.0023
rwrist 41.1729
rhand -14.7169 -12.7236
rfingers 7.12502
rthumb 11.4378 -42.3916
lclavicle -1.59028e-015 -2.48481e-015
lhumerus -7.79242 -40.036 89.143
lradius 73.8204
lwrist -28.1876
lhand -16.2494 18.3119
lfingers 7.12502
lthumb 9.95953 48.0563
rfemur -68.5462 4.11843 18.7361
rtibia 52.3168
rfoot -3.13166 -22.5494
rtoes -24.6626
lfemur -61.7123 -9.2371 -15.6928
ltibia 62.1494
lfoot -3.98055 26.258
ltoes -0.753648
